<svg xmlns="http://www.w3.org/2000/svg" version="1.1" viewBox="0 0 2000 2000" width="1280" height="1280">
<path transform="translate(0)" d="m0 0h2e3v2e3h-2e3z"/>
<path transform="translate(1570,500)" d="m0 0h45l42 8 13 4 32 16 16 10 14 12 10 9 8 7 7 8 12 13 9 15 20 41 6 17 7 25 1 7v48l-3 14-10 39-6 14-13 23-9 14-11 13-7 7-7 8-24 24-6 7-6 5-6 7-6 5-6 7-6 5-6 7-8 7-50 50-3 4h-2l-2 4-5 4-3 7-16 16-6 3-10 10h-2l-2 4h-2l-2 4h-2l-2 4-60 60h-2l-2 4-8 8-8 7-5 5-5 2-14 14h-2l-2 4h-2l-2 4h-2l-2 4h-2l-2 4h-2l-2 4h-2l-2 4h-2l-2 4h-2l-2 4-6 5-7 8-1 1-1 8-49 49-8 5-4 4h-2l-1 3-8 7-29 29-8 5-4 4h-2l-1 3-8 7-30 30-6 3-15 14-4 3-6 3-8 1-10 6-26 13-37 13-42 14-31 6-36 4-13 1h-39l-36-3-17-3-40-11-44-15-24-9-19-10-25-13-18-11-17-12-22-15-12-9-12-12v-2l-11 9-14 14-8 7-13 12-8 7-6 6h-2l-1 3-8 7-70 70-12 9-17 12-20 14-15 7-30 11-21 6-19 4-17 1h-54l-8-7-14-5-20-8-25-13-15-9-15-13-13-12-10-10-10-15-11-18-16-39-7-20-4-14v-69l14-40 14-28 12-21 15-16 9-9 7-8 16-17 27-27 2-3h2l2-4 74-74 6-9 9-9 7-9 8-7 8-8 8-7 84-84 11-9 14-13 8-7 30-30 7-8 11-12 10-10 7-8 13-13 7-2 2-4 10-13 18-22 9-10 3-4h2l2-4 11-12 10-13 6-7h2l2-4 11-9 13-11 11-9 16-11 19-12 20-12 23-12 23-11 28-10 23-8 9-3 35-6 26-3 16-1h75l24 4 48 10 29 9 17 6 33 16 16 8 16 9 28 19 17 12 12 9 6 4v2l4 2 12 9 8 5h2l16-16 2-3h2l2-4 85-85 6-7 6-5 5-5 9-8 26-16 15-9 12-6 38-12z" fill="#F7455E"/>
<path transform="translate(1570,500)" d="m0 0h45l42 8 13 4 32 16 16 10 14 12 10 9 8 7 7 8 12 13 9 15 20 41 6 17 7 25 1 7v48l-3 14-10 39-6 14-13 23-9 14-11 13-7 7-7 8-24 24-6 7-6 5-6 7-6 5-6 7-6 5-6 7-8 7-50 50-3 4h-2l-2 4-5 4-3 7-16 16-6 3-10 10h-2l-2 4h-2l-2 4h-2l-2 4-60 60h-2l-2 4-8 8-8 7-5 5-5 2-14 14h-2l-2 4h-2l-2 4h-2l-2 4h-2l-2 4h-2l-2 4h-2l-2 4h-2l-2 4h-2l-2 4-6 5-7 8-1 1-1 8-49 49-8 5-4 4h-2l-1 3-8 7-29 29-8 5-4 4h-2l-1 3-8 7-30 30-6 3-15 14-4 3-6 3-8 1-10 6-26 13-37 13-42 14-31 6-36 4-13 1h-39l-36-3-17-3-40-11-44-15-24-9-19-10-25-13-18-11-17-12-22-15-12-9-12-12 2-4 14-14 7-8 9-10 11-12 10-10h2l2-4 8-7 282-282 7-8 12-12 1-2h2l2-4 15-14 10-10 7-8 9-9 8-7 16-15 75-75 2-3h2l2-4 9-9 7-8 28-28 5-7h2l2-4 18-18 11-9 15-14 6-7 4-5 2-5 8-7 7-7 2-3h2l2-4 85-85 6-7 6-5 5-5 9-8 26-16 15-9 12-6 38-12z" fill="#348AE9"/>
<path transform="translate(622,768)" d="m0 0 3 1v6l-8 20-8 13-7 15-6 16-6 24-7 37-4 21-3 19-2 17-1 19v37l1 20 6 38 3 16 3 15 8 25 12 33 8 20 8 17 9 17 8 16 7 12 13 19 8 11 12 17 10 12 5 10-1 6-10 9-9 9-8 7-13 12-8 7-6 6h-2l-1 3-8 7-70 70-12 9-17 12-20 14-15 7-30 11-21 6-19 4-17 1h-54l-8-7-14-5-20-8-25-13-15-9-15-13-13-12-10-10-10-15-11-18-16-39-7-20-4-14v-69l14-40 14-28 12-21 15-16 9-9 7-8 16-17 27-27 2-3h2l2-4 74-74 6-9 9-9 7-9 8-7 8-8 8-7 84-84 11-9 14-13 8-7 30-30 7-8 11-12 10-10 7-8 13-13z" fill="#FC9D0B"/>
<path transform="translate(1570,500)" d="m0 0h45l42 8 13 4 32 16 16 10 14 12 10 9 8 7 7 8 12 13 9 15 20 41 6 17 7 25 1 7v48l-3 14-10 39-6 14-13 23-9 14-11 13-7 7-7 8-24 24-6 7-6 5-6 7-6 5-6 7-6 5-6 7-8 7-50 50-3 4h-2l-2 4-5 4-3 7-16 16-6 3-10 10h-2l-2 4h-2l-2 4h-2l-2 4-60 60h-2l-2 4-8 8-8 7-5 5-5 2-14 14h-2l-2 4h-2l-2 4h-2l-2 4h-2l-2 4h-2l-2 4h-2l-2 4h-2l-2 4-5 2-1-4 2-3h2l-1-9 2-16 5-22 2-23 2-18 5-47 2-40v-18l-1-30-3-24-8-36-7-25-9-27-8-20-6-14-8-16-11-20-7-14-12-20-11-16-12-16-11-16-4-7v-4h-2l2-5 12-12 2-3h2l2-4 85-85 6-7 6-5 5-5 9-8 26-16 15-9 12-6 38-12z" fill="#46C5EE"/>
<path transform="translate(1646,968)" d="m0 0 2 2-26 26-3 4h-2l-2 4-5 4-2 6-2-2 1-4 9-10 6-6h2l2-4 9-9h2l1-3 6-5z" fill="#348BEA"/>
</svg>